<svg xmlns="http://www.w3.org/2000/svg" viewBox="0 0 120 120">
  <defs>
    <linearGradient id="g" x1="0" x2="1" y1="0" y2="1">
      <stop offset="0%" stop-color="#ff6b9d"/>
      <stop offset="100%" stop-color="#ffa6c1"/>
    </linearGradient>
  </defs>
  <circle cx="60" cy="60" r="56" fill="url(#g)"/>
  <path d="M36 70c0-8 8-18 24-18s24 10 24 18" fill="#fff" opacity="0.9"/>
  <path d="M42 54c4-10 18-16 18-16s14 6 18 16" fill="#fff" opacity="0.95"/>
  <circle cx="46" cy="50" r="7" fill="#fff"/>
  <circle cx="74" cy="50" r="7" fill="#fff"/>
  <circle cx="46" cy="50" r="3" fill="#ff6b9d"/>
  <circle cx="74" cy="50" r="3" fill="#ff6b9d"/>
  <path d="M54 70c2 4 8 5 12 0" stroke="#ff6b9d" stroke-width="4" stroke-linecap="round" fill="none"/>
  <path d="M38 38c10-8 18-6 22 0" stroke="#fff" stroke-width="6" stroke-linecap="round" fill="none"/>
  <path d="M82 38c-10-8-18-6-22 0" stroke="#fff" stroke-width="6" stroke-linecap="round" fill="none"/>
  <path d="M50 24c4-8 24-8 28 0" stroke="#fff" stroke-width="7" stroke-linecap="round" fill="none" opacity="0.85"/>
  <text x="60" y="108" font-family="Verdana, sans-serif" font-size="12" text-anchor="middle" fill="#fff" font-weight="700">Pig Fit</text>
</svg>
